<svg width="32" height="32" viewBox="0 0 32 32" fill="none" xmlns="http://www.w3.org/2000/svg">
<circle cx="16" cy="16" r="16" fill="white"/>
<g clip-path="url(#clip0_24_240)">
<path fill-rule="evenodd" clip-rule="evenodd" d="M15.9993 6.63721C10.6985 6.63721 6.3999 10.9352 6.3999 16.2378C6.3999 20.4788 9.15033 24.077 12.9654 25.3466C13.4455 25.4346 13.6207 25.1382 13.6207 24.8838C13.6207 24.6559 13.6124 24.0522 13.6077 23.2511C10.9373 23.8312 10.3739 21.9642 10.3739 21.9642C9.93733 20.8552 9.30798 20.5599 9.30798 20.5599C8.43635 19.9643 9.37393 19.9764 9.37393 19.9764C10.3373 20.0443 10.8444 20.9657 10.8444 20.9657C11.7007 22.4327 13.0912 22.0091 13.6382 21.7634C13.7255 21.143 13.9735 20.7199 14.2477 20.48C12.116 20.2377 9.87492 19.4141 9.87492 15.7354C9.87492 14.6873 10.249 13.8304 10.8631 13.1593C10.7643 12.9164 10.4349 11.9404 10.9572 10.6187C10.9572 10.6187 11.7632 10.3606 13.5971 11.6028C14.3628 11.3899 15.1841 11.2834 16.0005 11.2797C16.8157 11.2834 17.637 11.3899 18.4038 11.6028C20.2366 10.3606 21.0412 10.6187 21.0412 10.6187C21.5649 11.9404 21.2354 12.9164 21.1367 13.1593C21.752 13.8304 22.1235 14.6873 22.1235 15.7354C22.1235 19.4233 19.8789 20.2348 17.7403 20.4725C18.085 20.7689 18.392 21.3548 18.392 22.2503C18.392 23.5337 18.3803 24.5691 18.3803 24.8838C18.3803 25.1405 18.5532 25.4392 19.0404 25.3455C22.8518 24.0735 25.5999 20.4777 25.5999 16.2378C25.5999 10.9352 21.3013 6.63721 15.9993 6.63721Z" fill="black"/>
</g>
<defs>
<clipPath id="clip0_24_240">
<rect width="19.2" height="19.2" fill="white" transform="translate(6.3999 6.3999)"/>
</clipPath>
</defs>
</svg>
