<svg width="32" height="32" viewBox="0 0 32 32" fill="none" xmlns="http://www.w3.org/2000/svg">
<circle cx="16" cy="16" r="16" fill="white"/>
<path d="M22.1356 10.4149C22.1307 10.4054 22.1226 10.3979 22.1127 10.3939C20.969 9.86914 19.7621 9.49496 18.5221 9.2807C18.5108 9.27861 18.4992 9.28012 18.4889 9.28502C18.4785 9.28992 18.4699 9.29796 18.4644 9.308C18.3001 9.60629 18.1509 9.91268 18.0174 10.226C16.6808 10.0231 15.3212 10.0231 13.9846 10.226C13.8503 9.91188 13.6987 9.60542 13.5306 9.308C13.5248 9.29818 13.5162 9.29033 13.5059 9.28546C13.4956 9.28059 13.4841 9.27893 13.4729 9.2807C12.2328 9.49451 11.0258 9.86872 9.88223 10.3939C9.87244 10.3981 9.86418 10.4051 9.85859 10.4142C7.57172 13.8293 6.94526 17.1605 7.25258 20.4504C7.25345 20.4585 7.25593 20.4663 7.25987 20.4734C7.26381 20.4805 7.26914 20.4867 7.27553 20.4917C8.60716 21.4776 10.0966 22.2302 11.6803 22.7173C11.6914 22.7207 11.7033 22.7205 11.7144 22.7169C11.7255 22.7133 11.7352 22.7064 11.7422 22.6971C12.0823 22.2342 12.3837 21.7442 12.6433 21.2318C12.6469 21.2248 12.6489 21.2171 12.6493 21.2092C12.6496 21.2013 12.6483 21.1934 12.6454 21.1861C12.6426 21.1788 12.6381 21.1721 12.6325 21.1666C12.6269 21.1611 12.6201 21.1569 12.6127 21.1542C12.1374 20.9723 11.6773 20.7531 11.2367 20.4986C11.2287 20.4939 11.2219 20.4873 11.2171 20.4793C11.2123 20.4714 11.2094 20.4624 11.2089 20.4532C11.2083 20.4439 11.2101 20.4346 11.214 20.4262C11.2178 20.4178 11.2237 20.4104 11.2311 20.4048C11.3238 20.3355 11.415 20.2641 11.5044 20.1907C11.5122 20.1842 11.5217 20.1801 11.5318 20.1787C11.5419 20.1774 11.5521 20.1788 11.5614 20.183C14.4483 21.5005 17.5737 21.5005 20.4264 20.183C20.4357 20.1786 20.446 20.1769 20.4563 20.1781C20.4665 20.1794 20.4761 20.1835 20.4841 20.19C20.5736 20.2638 20.665 20.3355 20.7581 20.4048C20.7655 20.4104 20.7715 20.4177 20.7754 20.4261C20.7793 20.4345 20.7811 20.4437 20.7807 20.453C20.7802 20.4622 20.7774 20.4713 20.7726 20.4792C20.7679 20.4872 20.7612 20.4938 20.7532 20.4986C20.3136 20.7552 19.853 20.9743 19.3765 21.1535C19.3691 21.1563 19.3624 21.1606 19.3568 21.1662C19.3512 21.1718 19.3468 21.1785 19.344 21.1859C19.3412 21.1933 19.3399 21.2012 19.3404 21.2091C19.3408 21.217 19.3429 21.2248 19.3465 21.2318C19.6104 21.7413 19.9114 22.2308 20.2469 22.6963C20.2537 22.7058 20.2634 22.713 20.2745 22.7167C20.2856 22.7205 20.2976 22.7207 20.3088 22.7173C21.8954 22.2318 23.3874 21.4791 24.7207 20.4917C24.7272 20.4869 24.7326 20.4809 24.7365 20.4739C24.7405 20.4669 24.7429 20.4591 24.7436 20.4511C25.1116 16.6476 24.1277 13.3438 22.1356 10.4149ZM13.0744 18.4472C12.2053 18.4472 11.4891 17.6496 11.4891 16.67C11.4891 15.6905 12.1914 14.8928 13.0744 14.8928C13.9644 14.8928 14.6736 15.6974 14.6597 16.67C14.6597 17.6496 13.9574 18.4472 13.0744 18.4472ZM18.9358 18.4472C18.0667 18.4472 17.3505 17.6496 17.3505 16.67C17.3505 15.6905 18.0528 14.8928 18.9358 14.8928C19.8258 14.8928 20.535 15.6974 20.5211 16.67C20.5211 17.6496 19.8258 18.4472 18.9358 18.4472Z" fill="black"/>
</svg>
