<svg width="32" height="32" viewBox="0 0 32 32" fill="none" xmlns="http://www.w3.org/2000/svg">
<circle cx="16" cy="16" r="16" fill="white"/>
<g clip-path="url(#clip0_24_230)">
<path d="M25.5999 10.0453C24.8935 10.3586 24.1343 10.5704 23.3375 10.6656C24.1508 10.1781 24.7754 9.40613 25.0695 8.48629C24.3084 8.93771 23.4654 9.26553 22.5681 9.44221C21.8496 8.67661 20.8258 8.19824 19.6929 8.19824C17.5173 8.19824 15.7537 9.96193 15.7537 12.1373C15.7537 12.446 15.7885 12.7466 15.8556 13.035C12.5819 12.8707 9.67935 11.3025 7.73652 8.91926C7.39745 9.50106 7.20322 10.1777 7.20322 10.8996C7.20322 12.2662 7.89865 13.4719 8.95559 14.1783C8.30989 14.1579 7.70251 13.9807 7.17139 13.6856C7.17112 13.7021 7.17106 13.7185 7.17106 13.7351C7.17106 15.6437 8.52887 17.2358 10.3309 17.5976C10.0003 17.6876 9.65233 17.7358 9.2931 17.7358C9.03927 17.7358 8.7925 17.7111 8.55198 17.6651C9.05325 19.2301 10.508 20.369 12.2317 20.4008C10.8836 21.4572 9.18508 22.087 7.33957 22.087C7.02161 22.087 6.70805 22.0683 6.3999 22.032C8.14316 23.1496 10.2137 23.8017 12.4382 23.8017C19.6837 23.8017 23.6458 17.7994 23.6458 12.594C23.6458 12.4233 23.6419 12.2534 23.6344 12.0845C24.4039 11.5291 25.0718 10.8353 25.5999 10.0453Z" fill="black"/>
</g>
<defs>
<clipPath id="clip0_24_230">
<rect width="19.2" height="19.2" fill="white" transform="translate(6.3999 6.3999)"/>
</clipPath>
</defs>
</svg>
