<svg width="33" height="32" viewBox="0 0 33 32" fill="none" xmlns="http://www.w3.org/2000/svg">
<circle cx="16.5" cy="16" r="16" fill="white"/>
<path fill-rule="evenodd" clip-rule="evenodd" d="M20.2045 9.2501C21.2102 9.2501 22.1777 9.6476 22.8895 10.3608C23.602 11.0726 24.0002 12.0326 24.0002 13.0376V18.9626C24.0002 21.0551 22.2977 22.7501 20.2045 22.7501H12.7952C10.702 22.7501 9.00024 21.0551 9.00024 18.9626V13.0376C9.00024 10.9451 10.6945 9.2501 12.7952 9.2501H20.2045ZM21.3977 14.1551L21.4577 14.0951C21.637 13.8776 21.637 13.5626 21.4495 13.3451C21.3452 13.2333 21.202 13.1651 21.0527 13.1501C20.8952 13.1418 20.7452 13.1951 20.632 13.3001L17.2502 16.0001C16.8152 16.3608 16.192 16.3608 15.7502 16.0001L12.3752 13.3001C12.142 13.1276 11.8195 13.1501 11.6252 13.3526C11.4227 13.5551 11.4002 13.8776 11.572 14.1026L11.6702 14.2001L15.0827 16.8626C15.5027 17.1926 16.012 17.3726 16.5452 17.3726C17.077 17.3726 17.5952 17.1926 18.0145 16.8626L21.3977 14.1551Z" fill="black"/>
</svg>
